<?xml version="1.0" standalone="no"?>
<!DOCTYPE svg PUBLIC "-//W3C//DTD SVG 20010904//EN"
 "http://www.w3.org/TR/2001/REC-SVG-20010904/DTD/svg10.dtd">
<svg version="1.0" xmlns="http://www.w3.org/2000/svg"
 width="691.000000pt" height="691.000000pt" viewBox="0 0 691.000000 691.000000"
 preserveAspectRatio="xMidYMid meet">
<metadata>
Created by potrace 1.11, written by Peter Selinger 2001-2013
</metadata>
<g transform="translate(0.000000,691.000000) scale(0.100000,-0.100000)"
fill="#000000" stroke="none">
<path d="M3040 5570 c-126 -22 -206 -42 -303 -77 -551 -196 -956 -665 -1079
-1248 -20 -95 -23 -139 -23 -325 0 -216 1 -228 46 -418 41 -174 161 -423 278
-577 89 -117 207 -238 313 -321 l56 -44 156 0 c86 0 156 4 156 8 0 7 -29 26
-101 65 -153 82 -372 287 -482 452 -110 167 -186 346 -229 542 -29 134 -32
436 -5 563 56 264 154 476 305 663 150 187 301 307 516 412 153 75 276 113
457 139 468 69 986 -120 1300 -475 65 -74 159 -193 159 -202 0 -3 19 -38 43
-79 206 -351 247 -841 102 -1228 -9 -25 -19 -54 -22 -64 -10 -31 -97 -196
-136 -256 -19 -31 -60 -87 -91 -124 l-56 -69 0 832 0 831 -242 -2 -243 -3 -3
-1005 -2 -1005 -43 -17 c-23 -9 -52 -19 -64 -23 l-23 -6 0 811 0 810 -242 -2
-243 -3 -3 -847 -2 -848 -60 0 -60 0 0 520 0 520 -245 0 -245 0 0 -520 0 -520
-443 0 c-406 0 -452 2 -540 20 -389 81 -717 335 -893 690 -222 449 -161 997
155 1380 206 251 499 417 811 459 47 7 98 14 114 16 19 3 54 31 106 84 l78 79
-30 6 c-47 9 -102 7 -241 -9 -300 -35 -556 -146 -789 -342 -193 -163 -365
-425 -442 -673 -158 -514 -19 -1077 359 -1454 102 -101 119 -116 222 -185 156
-105 334 -179 538 -224 98 -21 113 -22 945 -22 764 0 854 2 935 18 379 73 660
219 915 476 150 151 213 239 315 441 113 222 171 473 169 740 -1 268 -54 491
-175 735 -161 325 -429 590 -766 759 -144 72 -301 119 -502 151 -127 20 -348
18 -481 -5z"/>
<path d="M4820 4959 c-36 -6 -69 -14 -74 -19 -5 -5 5 -25 21 -47 17 -21 43
-58 59 -83 l30 -45 149 -1 c175 -2 282 -22 426 -79 445 -177 731 -596 731
-1075 1 -636 -515 -1150 -1153 -1150 -180 0 -393 51 -528 126 l-43 24 -37 -28
c-20 -16 -60 -43 -90 -62 l-54 -34 24 -19 c39 -31 213 -115 297 -143 142 -47
263 -65 432 -65 174 0 273 15 420 63 210 68 398 187 558 352 201 209 321 454
367 751 57 359 -57 760 -298 1050 -197 237 -455 394 -766 466 -101 24 -367 34
-471 18z"/>
<path d="M920 1945 l0 -95 -35 0 c-33 0 -35 -2 -35 -35 0 -33 2 -35 35 -35
l35 0 0 -155 0 -155 35 0 35 0 0 155 0 155 60 0 60 0 0 35 0 35 -60 0 -60 0 0
95 0 95 -35 0 -35 0 0 -95z"/>
<path d="M1802 2025 c-203 -63 -267 -320 -117 -470 74 -73 179 -100 280 -70
46 13 70 28 115 73 31 31 59 67 62 80 6 20 3 22 -29 22 -30 0 -42 -7 -71 -41
-85 -99 -217 -105 -308 -14 -122 123 -53 338 116 361 72 10 128 -11 183 -67
38 -40 53 -49 81 -49 30 0 33 2 28 23 -3 12 -31 47 -62 79 -82 81 -174 106
-278 73z"/>
<path d="M3140 1945 l0 -95 -35 0 c-33 0 -35 -2 -35 -35 0 -33 2 -35 35 -35
l35 0 0 -155 0 -155 35 0 35 0 0 155 0 155 60 0 60 0 0 35 0 35 -60 0 -60 0 0
95 0 95 -35 0 -35 0 0 -95z"/>
<path d="M4152 2026 c-204 -67 -267 -321 -117 -471 56 -55 116 -79 200 -79
164 0 279 116 279 279 0 84 -23 144 -79 200 -71 71 -191 101 -283 71z m168
-77 c24 -11 53 -28 64 -37 30 -26 66 -113 66 -157 0 -42 -29 -116 -58 -149
-26 -29 -113 -66 -157 -66 -44 0 -131 37 -157 66 -29 33 -58 107 -58 149 0 42
29 116 58 149 26 30 113 66 157 66 22 0 60 -10 85 -21z"/>
<path d="M5010 1755 l0 -285 35 0 35 0 0 285 0 285 -35 0 -35 0 0 -285z"/>
<path d="M5130 1955 c0 -33 2 -35 35 -35 33 0 35 2 35 35 0 33 -2 35 -35 35
-33 0 -35 -2 -35 -35z"/>
<path d="M1160 1738 c0 -88 4 -122 19 -153 45 -98 152 -140 246 -96 89 41 115
98 115 251 l0 110 -35 0 -35 0 0 -106 c0 -124 -14 -164 -65 -188 -41 -20 -68
-20 -109 -1 -54 26 -66 58 -66 184 l0 111 -35 0 -35 0 0 -112z"/>
<path d="M2325 1831 c-154 -71 -150 -280 7 -346 47 -19 89 -19 136 0 160 67
160 283 0 350 -49 20 -94 19 -143 -4z m130 -67 c69 -33 83 -130 27 -186 -73
-74 -202 -21 -202 82 0 38 30 88 63 104 41 20 71 20 112 0z"/>
<path d="M2755 1831 c-89 -41 -115 -98 -115 -251 l0 -110 35 0 35 0 0 111 c0
87 4 117 17 140 18 31 67 59 103 59 36 0 85 -28 103 -59 13 -23 17 -53 17
-140 l0 -111 35 0 35 0 0 113 c0 87 -4 121 -19 152 -45 98 -152 140 -246 96z"/>
<path d="M3505 1831 c-98 -45 -139 -151 -96 -246 45 -100 162 -141 260 -92 29
15 31 14 31 -4 0 -15 7 -19 35 -19 l35 0 0 113 c0 87 -4 121 -19 152 -45 98
-152 140 -246 96z m130 -67 c35 -16 65 -65 65 -104 0 -12 -7 -37 -16 -55 -16
-35 -65 -65 -104 -65 -60 0 -120 60 -120 120 0 38 30 88 63 104 41 20 71 20
112 0z"/>
<path d="M4685 1831 c-89 -41 -115 -98 -115 -251 l0 -110 35 0 35 0 0 111 c0
87 4 117 17 140 18 31 67 59 103 59 36 0 85 -28 103 -59 13 -23 17 -53 17
-140 l0 -111 35 0 35 0 0 113 c0 87 -4 121 -19 152 -45 98 -152 140 -246 96z"/>
<path d="M5130 1660 l0 -190 35 0 35 0 0 190 0 190 -35 0 -35 0 0 -190z"/>
<path d="M5375 1831 c-89 -41 -115 -98 -115 -251 l0 -110 35 0 35 0 0 111 c0
87 4 117 17 140 18 31 67 59 103 59 36 0 85 -28 103 -59 13 -23 17 -53 17
-140 l0 -111 35 0 35 0 0 113 c0 87 -4 121 -19 152 -45 98 -152 140 -246 96z"/>
<path d="M5835 1842 c-113 -37 -166 -161 -115 -267 58 -120 221 -139 312 -37
l32 37 -38 3 c-26 2 -53 -4 -80 -19 -32 -17 -51 -20 -78 -15 -35 6 -88 46 -88
66 0 6 50 10 144 10 119 0 145 3 150 15 13 34 -23 133 -61 167 -43 40 -124 57
-178 40z m105 -77 c16 -9 37 -29 45 -45 l16 -30 -111 0 c-73 0 -110 4 -110 11
0 6 15 26 34 45 38 38 77 44 126 19z"/>
<path d="M3820 1505 c0 -33 2 -35 35 -35 33 0 35 2 35 35 0 33 -2 35 -35 35
-33 0 -35 -2 -35 -35z"/>
</g>
</svg>
